# xmcd
#
# Track frame offsets: 
#        150
#        20594
#        37037
#        55081
#        70315
#        85542
#        99393
#        112596
#        127110
#        137425
#        150493
#        171123
#        186561
#
# Disc length: 2635 seconds
#
# Revision: 0
# Processed by: cddbd v1.5.2PL0 Copyright (c) Steve Scherf et al.
# Submitted via: ExactAudioCopy v0.90b4
#
DISCID=a40a490d
DTITLE=Grams and Krieger - No, You!
DYEAR=2005
DGENRE=Blues
TTITLE0=Chilly Side of Town
TTITLE1=Don't Look Up
TTITLE2=Big Mouth Baby
TTITLE3=Blues In the Bottle
TTITLE4=Memphis Train
TTITLE5=These Blues
TTITLE6=Lay Low
TTITLE7=Lonesome Whistle Blow
TTITLE8=Old Sparky's Waltz
TTITLE9=Piggy Back Rider
TTITLE10=They Said
TTITLE11=It's A Dog's Life
TTITLE12=Hey Paulina
EXTD=
EXTT0=
EXTT1=
EXTT2=
EXTT3=
EXTT4=
EXTT5=
EXTT6=
EXTT7=
EXTT8=
EXTT9=
EXTT10=
EXTT11=
EXTT12=
PLAYORDER=
